<svg xmlns="http://www.w3.org/2000/svg" xmlns:xlink="http://www.w3.org/1999/xlink"><symbol id="htmlacademy" viewBox="0 0 60 60"><path fill="#2E368F" d="M30.2 5H30L10.3 7.1v36.2L30 55l19.7-11.7V7.1L30.2 5zm17 36.8L30 52 12.8 41.8V27l17.1 10.2V39l-11.7-7v1.8L30 40.9v1.9l-11.8-7v1.8l11.8 7 11.9-7.1v-7.6l5.3-3.2v15.1zm-.1-17-4.7 2.8-2.2 1.3-10.3-6.1v1.8l8.8 5.3h-.1l-.2.1-1.3.7-7.3-4.3v1.8l5.8 3.4-1.4.9-4.3-2.6v1.8l2.9 1.7-2.9 1.7-17-10.1 17-10.2 17.2 10zm.1-1.8L29.9 12.8 12.8 23V9.4L30 7.6l17.2 1.8V23z"/></symbol><symbol id="like"><g fill="none"><path opacity=".3" d="m12.964 3.78-.628 3.045-.627 2.625h9.096v2.205L17.773 18.9h-9.41V8.4l4.6-4.62ZM2.09 10.5v8.4-8.4ZM13.8 0 6.9 6.93c-.418.315-.627.84-.627 1.47v10.5c0 1.155.94 2.1 2.09 2.1h9.41c.836 0 1.568-.525 1.881-1.26l3.137-7.455c.104-.21.104-.525.104-.735v-2.1H23c0-1.155-.94-2.1-2.09-2.1h-6.587l1.045-4.83v-.315c0-.42-.209-.84-.418-1.155L13.8 0ZM4.182 8.4H0V21h4.182V8.4Z" fill="#000"/></g></symbol><symbol id="play"><g fill="none"><path d="M48 27 0 54V0l48 27Z" fill="#fff" fill-opacity=".7"/></g></symbol><symbol id="mail"><g fill="none"><path d="M8 8c-.3 0-.5-.1-1-.3L0 4v7c0 .5.5 1 1 1h14c.5 0 1-.5 1-1V4L9 7.7c-.5.2-.7.3-1 .3Zm7-8H1C.5 0 0 .5 0 1v.8L8 6l8-4.2V1c0-.5-.5-1-1-1Z" fill="#000"/></g></symbol><symbol id="phone"><g fill="none"><path d="M3.6 7.8c1.4 2.8 3.8 5.1 6.6 6.6l2.2-2.2c.3-.3.7-.4 1-.2 1.1.4 2.3.6 3.6.6.6 0 1 .4 1 1V17c0 .6-.4 1-1 1C7.6 18 0 10.4 0 1c0-.6.4-1 1-1h3.5c.6 0 1 .4 1 1 0 1.2.2 2.4.6 3.6.1.3 0 .7-.2 1L3.6 7.8Z" fill="#010101"/></g></symbol><symbol id="point"><g fill="none"><path fill-rule="evenodd" clip-rule="evenodd" d="M8 0a8 8 0 1 1 0 16A8 8 0 1 1 8 0Z" fill="#333"/></g></symbol><symbol id="tick"><g fill="none"><path d="M21.805 1.307 20.76.222c-.285-.296-.856-.296-1.141 0L8.298 11.957 2.403 5.843c-.286-.296-.856-.296-1.142 0L.214 6.928c-.285.295-.285.887 0 1.183l7.419 7.692c.19.197.38.197.57.197.191 0 .381-.099.571-.197L21.615 2.49c.476-.296.476-.789.19-1.183Z" fill="#333"/></g></symbol><symbol id="logo"><g fill="none"><path d="M185 0H0l79.81 90.101c7.039 7.865 18.44 7.865 25.479 0L185 0Z" fill="#81B3D3"/><path d="M42.83.697 92.004 58.84l48.878-57.745L42.83.697Z" fill="#23A9E1"/><path d="M120.954 17.224c-5.056 0-10.013.1-15.07.1 5.949-6.87 8.626-6.173 15.07-.1ZM80.107 22.6h26.471c-1.983-1.195-6.642-7.069-9.22-4.879-.198.2-7.436-8.86-12.195-4.48-4.163 3.784-6.047-.497-10.806 2.49-5.255 3.583 3.172 5.674 5.75 6.869Z" fill="#fff"/><path d="M92.302 0H41.838v22.4l50.166 61.23.298-.398 50.265-60.134V0H92.302ZM54.429 1.792h5.453v17.124l-5.453-6.471V1.792Zm-.793 9.757L48.68 5.675V1.792h4.957v9.757ZM72.771 8.86 67.12 1.792h5.65v7.069Zm-6.544 3.783L60.675 1.792h5.552v10.852Zm-5.65-9.259 5.452 10.653c-2.776 2.09-4.66 3.982-5.453 4.878V3.385Zm6.443-.498 5.552 6.87a41.788 41.788 0 0 0-3.073 1.891 53.637 53.637 0 0 0-2.479 1.793V2.886Zm6.544-.199 4.759 4.182c-1.686.696-3.272 1.493-4.76 2.29V2.687Zm5.552 3.883-5.354-4.779h5.949v4.58c-.298 0-.397.1-.595.199Zm18.936-4.779h4.957l-4.957 2.39v-2.39Zm-5.75 0h4.362l-4.362 2.09v-2.09Zm-.893 1.991-4.164-1.99h4.164v1.99Zm-5.452.498L80.9 1.792h5.057v2.489Zm-5.552-1.892 4.66 2.29c-1.587.399-3.173.797-4.66 1.295V2.389Zm6.345 0 3.37 1.593c-1.19.1-2.28.2-3.47.399V2.389h.1Zm10.31.1v1.892c-1.09-.2-2.18-.3-3.37-.399l3.37-1.493Zm6.445-.1v3.684c-1.487-.498-3.074-.995-4.759-1.394l4.759-2.29Zm.694-.597h5.849l-5.353 4.779c-.199-.1-.298-.1-.496-.2V1.793Zm13.483 0h5.552l-5.552 10.852V1.792Zm-6.543 0h5.651l-5.651 6.97v-6.97Zm-.793.896V9.16c-1.487-.796-3.074-1.593-4.759-2.29l4.759-4.18Zm6.543.2V13.34c-.694-.498-1.487-.996-2.28-1.593-.992-.697-2.181-1.394-3.371-2.09l5.651-6.77Zm6.345.497v15.133c-1.09-.996-2.875-2.688-5.453-4.58l5.453-10.553Zm.793 15.93V1.791h5.453v11.35l-5.453 6.172c.099.1 0 .1 0 0Zm6.246-17.523h4.957v4.68l-4.957 5.774V1.792Zm-82.288 0V4.68l-2.479-2.887h2.479Zm12.69 18.12.1.1s3.569-3.883 9.12-7.567c5.255-3.485 13.187-7.567 22.11-7.467 8.823 0 16.953 4.181 22.108 7.666 5.552 3.684 9.22 7.467 9.319 7.566l-3.866 4.48c-6.841.897-11.798 6.074-18.441 4.979-3.37-.598-3.47-2.49-4.461-4.48-.694-1.494-1.884-1.295-3.47-1.892-1.388-.598-2.28-1.693-5.155-1.095-2.479.597-2.776 4.48-5.949 4.28-1.685-.099-1.785-2.488-4.164-5.475-6.246-7.567-12.095-6.471-16.061.498l30.04 35.742-31.23-37.335Zm75.249-14.436V1.792h3.173l-3.173 3.684Z" fill="#491213"/><path d="m87.94 70.588 4.064-6.472 3.966 6.472-3.966 6.47-4.065-6.47Z" fill="#23A9E1"/><path d="M64.938 32.158c.496.597.893 1.294.793 2.09-.099.598-.892 1.593-.297 1.792.694-.896 1.487-1.891 2.181-2.787-.595-.2-5.353-5.775-5.353-6.472-1.091.598-2.083 1.195-3.173 1.693.198.697 1.289 0 1.884 0 .793.1 1.388.597 1.983 1.195-1.686 1.393-5.85 4.978-6.346 5.077-.198 0-1.09-.597-1.09-.1 0 .3.892.996.991 1.195.694.896 1.487 1.792 2.181 2.688.595-.298-.099-.697.199-1.194.297-.398 4.858-4.281 6.047-5.177ZM59.684 25.189c.396-.1.595.398.991-.1-.793-.996-1.586-1.892-2.38-2.887-.396-.399-.792-.896-.693 0 .099.597-6.048 5.675-6.444 5.774-.496.2-.794-.398-1.091.1.694.896 1.487 1.692 2.181 2.588.198.299.496.598.694.896.297.299.198-.697.198-.597-.099-.498.496-.896.893-1.195 1.487-1.294 5.254-4.58 5.65-4.58ZM50.96 24.293c-1.785.497-3.669-.2-4.165-1.992-.495-1.792.595-3.783 2.082-4.779 1.388-.995 3.57-.995 4.363.797.297.796.198 1.692-.1 2.489-.198.498-.594.995.1 1.294.892-1.095 1.685-2.19 2.577-3.285-1.09-.598-1.487-1.693-2.28-2.589-.892-1.095-2.082-2.09-3.47-2.29-2.875-.398-5.552 2.589-5.75 5.177-.1 1.494.396 2.788 1.19 3.983.793.995 1.883 1.593 2.379 2.787.297.1 2.677-.995 3.272-1.294-.1-.1-.1-.199-.199-.299-.694.2 0 0 0 0ZM89.922 60.532c-1.19-.796-3.965-4.68-4.56-5.277-.1-.1-.198-.298-.298-.398 0 0-.297.2-.198.2-.198.099.1.597-.1.895-.792 1.195-5.75 4.978-5.948 5.177-.594.399-1.19-.199-1.487.3.694.895 2.776 3.484 2.974 3.583.496.1.1-.796.199-.995.099-.399 2.578-2.39 3.47-3.186.297-.299.694.398.892.697.297.497.496.995.297 1.593-.099.398-.694.896-.297 1.194.595-.697 2.38-2.787 2.578-2.986.297-.3-.595 0-.496-.1-.397.2-.694.2-1.09 0-.1-.1-1.091-1.095-.992-1.195.397-.398.991-.995 1.487-1.095.892-.199 1.586 1.493 1.686 2.09.099.598.099 1.195-.1 1.793-.099.398-.495.697 0 .896.694-.996 1.388-1.892 2.082-2.887.199-.2 0-.299-.099-.299-.099-.1.199 0 0 0ZM79.81 56.35c2.18-1.891 2.478-5.077.793-7.267-1.884-2.49-5.354-3.087-7.733-1.095-2.181 1.891-2.479 4.977-.793 7.267 1.983 2.688 5.155 2.987 7.733 1.095 1.19-.895-.1.1 0 0Zm-.496-4.679c-.595 1.494-2.181 3.087-3.668 3.684-1.785.697-3.074-.796-2.38-2.589.694-1.493 2.181-3.086 3.669-3.683 1.883-.697 3.073.896 2.379 2.588-.396.896.1-.199 0 0ZM73.465 41.815c.495.1.892.498 1.288 0-.694-.896-1.487-1.792-2.18-2.589-.595.299 0 .498-.199.996-.198.398-2.578.796-3.172.896.198-.597.892-2.589 1.19-2.788.495-.398.892.398 1.288-.1l-2.677-3.285c-.297-.398-.595-.995-.991-.697 0 0 0 1.494-.1 1.693-.099.199-.892 3.584-1.883 4.48-.496.398-2.181 1.892-2.677 2.09-.496.2-.793-.597-1.19 0 .794.996 1.686 1.992 2.479 2.988.1.1.595.896.793.896.496.1.1-.896.1-1.096.197-.398 2.478-2.688 3.47-2.887 1.189-.199 2.974-.697 4.46-.597.298.1-.396 0 0 0Z" fill="#fff"/><path d="M67.219 22.8c-3.966-.2-2.38-3.983.396-4.78 2.578-.796 8.03 1.693 9.716 3.385-2.776.896-6.345.697-9.32.896-.197-3.186-.99-2.09-.792.498ZM76.637 35.244c-8.526-.1-2.776-13.241.1-12.445 3.37 1.095 2.974 12.544-.1 12.445ZM82.685 30.963c-.793 2.489-2.38 2.987-2.181-.1.198-3.484 2.478-2.688 4.858-3.982 1.983-1.095 3.073-5.177 6.543-2.788 1.586 1.096 3.371.2 3.867 1.792 0-.1-4.462 10.255-1.983 10.255-4.957 0-2.776-5.874-.892-9.856-1.785.896-4.76 6.67-2.38 7.566-1.289 1.693-5.155 3.883-7.138 2.29-1.487-1.095-.694-3.186-.694-5.177ZM86.75 40.52c-3.47.996-8.03-1.194-2.479-2.29 3.47-.696 7.138.698 2.479 2.29.099 0-.1 0 0 0ZM91.112 40.421c-.694-1.693.595-3.584 2.677-2.19 1.784 1.194-.892 3.086-2.677 2.19ZM88.138 45c-2.38-.696-10.41-.597-5.156-2.787 1.686-.597 10.113.2 5.156 2.788ZM98.548 48.286c-1.388-1.194-2.876-1.294-4.164 0-1.785-3.285-8.23-2.19-11.302-2.688 1.586 4.082 14.672 4.879 15.466 2.688ZM96.664 50.775c-3.173-.1-6.643-.597-9.518.1 1.884.498 6.345 1.792 2.181 2.887 1.488 2.19 3.966 1.991 5.552.1-.694-.3-.991-.697-1.586-1.096 1.586-.298 3.173-1.194 3.371-1.99ZM100.233 46.892c-5.254-3.086-3.966-5.376.397-7.566 2.28-1.095 7.237-5.177 9.319-3.883-3.272 3.883-6.543 7.666-9.716 11.45Z" fill="#DC6243"/><path d="M96.466 39.625c-4.462-4.58 6.642-4.182 8.427-5.775 1.289.398 10.707-8.263 12.987-7.666-1.685 1.892-5.155 8.064-7.733 8.064-1.982 0-3.965-.298-5.452 1.096-2.182 2.09-5.85 3.086-8.23 4.28Z" fill="#F49774"/><path d="M97.953 34.05c-2.479 1.294-4.759-3.884-.496-3.386 2.776.299 5.651-.199 8.229.2-1.983 2.29-4.66 3.583-7.733 3.185Z" fill="#F4B1A4"/><path d="M110.445 52.269c.198.597.297 1.294.198 1.99-.099.897-.991 2.888-2.181 2.29-1.19-.597-2.181-1.692-3.173-2.588.794-.896 1.488-1.692 2.876-1.294.396.1.694 0 .297-.299-.397-.199-3.073-1.991-3.272-1.792-.297.299.496.896.199 1.493-.199.399-.595.797-.893 1.195-.694-.597-1.883-1.294-1.09-2.29.495-.697 1.289-1.194 2.082-1.294.595-.1 1.784.398 1.983-.2-1.091-.497-2.182-.995-3.272-1.592.198.797-3.272 4.48-4.065 5.476-.099.1-.694.597-.694.796 0 .399.595.1.694.1.496-.2 6.742 5.077 6.94 5.476.099.298-.198.597 0 .697 0 0 .198.199.297.199.397-.498 4.462-5.974 5.354-6.173-.793-1.195-1.586-2.39-2.379-3.684-.595.299 0 .996.099 1.494ZM104.298 58.94c-2.082-1.295-5.552 1.293-6.048 1.492-.991.498-1.784-.497-1.289-1.493.496-.796 1.388-1.195 2.28-1.294.298 0 1.29.199 1.488 0 .099-.2.198-.2 0-.299-.892-.597-1.686-1.195-2.578-1.692-.198 1.095-1.388 1.692-2.082 2.389-.793.896-1.487 1.892-1.487 3.186 0 1.095.694 2.09 1.685 2.688 1.091.597 2.28.1 3.272-.498.595-.398 1.289-.896 1.884-1.194.991-.498 2.28-.1 1.983 1.294-.298 1.095-1.388 2.09-2.38 2.29-.595.199-1.289.1-1.883-.1-.397-.1-.992-.697-1.19-.1 1.19.797 2.28 1.693 3.47 2.49.099-.797.496-1.096 1.09-1.593a13.288 13.288 0 0 0 1.983-2.091c1.19-1.693 1.587-4.082-.198-5.476Z" fill="#fff"/><path d="M104.298 58.94c.991.596-.595-.499 0 0ZM140.683 19.514c-.694.697-8.328-2.29-8.923-2.788-.297-.1-.297-1.294-.694-.796l-1.189 1.493c-.397.498-.793.996-1.289 1.493-.298.299-.496.498 0 .697.793-.398 5.354 7.268 4.957 8.463-.694.398-6.841-5.078-7.039-5.377-.099-.1.297-.995-.198-.896-.199 0-.694.896-.893 1.096-.297.398-.595.697-.892 1.095.297.498.496 0 .991 0 .397.1 1.785 1.294 2.182 1.692-.694 0-2.677.1-2.876.1-.892.1-.396-.697-.991-.896-.793.896-1.487 1.792-2.28 2.787-.397.498-.893 1.096-1.289 1.593-.099.1 0 0 0 .1.297.299.099.2.595 0 .495-.2 6.543 4.878 6.741 5.177.397.398-.198.996.397 1.195.595-.697 1.19-1.494 1.785-2.19.099-.1.099-.1 0-.2-.397-.398-.496.2-.992.2-.496-.1-4.362-3.386-5.849-4.58 1.784-.1 7.237-.299 8.129-.299.298 0 1.091.896 1.091 1.195-.099.398-.496.597.099.796.496-.597.992-1.095 1.487-1.692l.199-.299c.099-.1.099-.1.198-.299l.198-.199c.397-.498 1.785-1.99 1.586-2.09-.495-.399-.694.497-1.288-.1-.298-.2-1.19-1.792-1.388-2.19-.298-.399.594-.896.991-1.096.793-.497 3.173-1.194 3.47.3 0 .298-.297.497-.099.696 0 0 .198.2.297.2.199-.2 2.38-2.788 3.272-3.983a2.729 2.729 0 0 1-.496-.398Zm-7.336 2.19c.099 0 .198-.1 0 0-.298.199-.694.498-.992.796-.495-.896-.991-1.792-1.586-2.688 1.19.498 2.379.996 3.47 1.494-.198.1-.496.199-.892.398ZM123.73 32.855c-2.38-1.992-5.552-1.394-7.535.796-1.884 2.29-1.685 5.675.595 7.566 2.28 1.892 5.651 1.394 7.535-.796 1.883-2.29 1.784-5.675-.595-7.566Zm-.298 6.57s0 .1 0 0c-1.288 1.295-3.37.1-4.461-.697-1.091-.796-3.073-2.588-1.884-4.081 1.091-1.295 3.074-.2 4.164.497 1.19.797 3.371 2.589 2.281 4.182l-.1.1Z" fill="#fff"/><path d="M123.73 32.855c1.19.995-.298-.2 0 0ZM123.432 39.526c0-.1 0-.1 0 0l.1-.1c-.1 0-.1.1-.1.1ZM117.186 41.914c.1.1.298.3 0 0-2.875-2.19-6.245-1.593-8.427 1.096a9395.1 9395.1 0 0 1-2.974 3.584c.397.498.793-.1 1.289.199.397.299 6.147 5.077 6.246 5.376.198.498-.297.498.099.896.198.1 4.461-5.177 4.858-6.173.892-1.792.297-3.683-1.091-4.978Zm-1.288 6.77c-.199.3 0 .1-.694.697-.298.3-6.345-4.679-6.147-4.878.793-.896 2.578-1.593 3.569-1.294 2.181.497 5.155 3.186 3.272 5.475Z" fill="#fff"/></g></symbol><symbol id="benefits-item-triagle"><g fill="none"><path fill-rule="evenodd" clip-rule="evenodd" d="M-225 0h384v37L-225 0ZM543 0H159v37L543 0Z" fill="#fff"/></g></symbol><symbol id="intro-triangle-d"><g fill="none"><path d="M249.6 23.7 0 0v57h600L249.6 0v23.7ZM950.4 23.7V0L600 57h599.9V0L950.4 23.7Z" fill="#fff"/></g></symbol><symbol id="intro-triangle-tablet"><g fill="none"><path d="M33.6 23.7-216 0v57h600L33.6 0v23.7ZM734.4 23.7V0L384 57h599.9V0L734.4 23.7Z" fill="#fff"/></g></symbol><symbol id="intro-triangle"><g fill="none"><path d="M-190.171 23.7-440 0v57h600.55L-190.171 0v23.7ZM511.271 23.7V0L160.55 57H761V0L511.271 23.7Z" fill="#fff"/></g></symbol><symbol id="tg"><g fill="none"><path d="m21.44 1.622-3.17 14.944c-.239 1.055-.862 1.317-1.748.82l-4.828-3.557-2.33 2.24c-.258.259-.473.474-.97.474l.347-4.917 8.948-8.086c.39-.347-.084-.54-.604-.192L6.022 10.314 1.26 8.823C.224 8.5.205 7.787 1.476 7.29L20.103.113c.863-.323 1.617.192 1.336 1.51Z" fill="#fff"/></g></symbol><symbol id="vk"><g fill="none"><path fill-rule="evenodd" clip-rule="evenodd" d="M23.45.948c.166-.546 0-.948-.795-.948H20.03c-.668 0-.976.347-1.143.73 0 0-1.335 3.196-3.226 5.272-.612.602-.89.793-1.224.793-.167 0-.418-.191-.418-.738V.948c0-.656-.184-.948-.74-.948H9.151c-.417 0-.668.304-.668.593 0 .621.946.765 1.043 2.513v3.798c0 .833-.153.984-.487.984-.89 0-3.055-3.211-4.34-6.885C4.45.288 4.198 0 3.527 0H.9C.15 0 0 .347 0 .73c0 .682.89 4.07 4.145 8.551C6.315 12.341 9.37 14 12.153 14c1.669 0 1.875-.368 1.875-1.003v-2.313c0-.737.158-.884.687-.884.39 0 1.057.192 2.615 1.667C19.11 13.216 19.403 14 20.405 14h2.625c.75 0 1.126-.368.91-1.096-.238-.724-1.088-1.775-2.215-3.022-.612-.71-1.53-1.475-1.809-1.858-.389-.491-.278-.71 0-1.147 0 0 3.2-4.426 3.533-5.929h.001Z" fill="#fff"/></g></symbol><symbol id="yt"><g fill="none"><path d="M19.181 5H4.813C3.306 5 2 6.3 2 7.8v8.3C2 17.7 3.306 19 4.813 19h14.368c1.608 0 2.814-1.3 2.814-2.8V7.8c.1-1.5-1.206-2.8-2.814-2.8ZM9.033 15.4V8.6l6.833 3.4-6.833 3.4Z" fill="#fff"/></g></symbol><symbol id="menu-button"><g fill="none"><path d="M22.9 0H0v4h22.9V0ZM22.9 9H0v4h22.9V9ZM22.9 18H0v4h22.9v-4Z" fill="#81B3D2"/></g></symbol><symbol id="menu-close"><g fill="none"><path d="M22.2 2.8 19.4 0l-8.3 8.3L2.8 0 0 2.8l8.3 8.3L0 19.4l2.8 2.8 8.3-8.3 8.3 8.3 2.8-2.8-8.3-8.3 8.3-8.3Z" fill="#fff"/></g></symbol></svg>